<svg xmlns="http://www.w3.org/2000/svg" width="54.607" height="34.75" viewBox="0 0 54.607 34.75">
  <path id="ic_people_24px" d="M38.232,19.893a7.446,7.446,0,1,0-7.446-7.446A7.415,7.415,0,0,0,38.232,19.893Zm-19.857,0a7.446,7.446,0,1,0-7.446-7.446A7.415,7.415,0,0,0,18.375,19.893Zm0,4.964C12.592,24.857,1,27.761,1,33.545V39.75H35.75V33.545C35.75,27.761,24.158,24.857,18.375,24.857Zm19.857,0c-.72,0-1.539.05-2.408.124,2.879,2.085,4.89,4.89,4.89,8.563V39.75H55.607V33.545C55.607,27.761,44.015,24.857,38.232,24.857Z" transform="translate(-1 -5)" fill="#fff"/>
</svg>
