<svg xmlns="http://www.w3.org/2000/svg" width="136.914" height="37" viewBox="0 0 136.914 37">
  <g id="Group_112" data-name="Group 112" transform="translate(-1500.086 -55)">
    <g id="Group_101" data-name="Group 101" transform="translate(1146.586 -226.75)">
      <path id="Path_18" data-name="Path 18" d="M358.544,375v1.6h-2.928l-2.116-1.022v6.64l2.083-1.149h2.961v5.4a1.309,1.309,0,0,0,1.309,1.309h16.655a1,1,0,0,0,1-1V375Zm8.3,4.26a.721.721,0,0,1-.72.72H355.607v-2.235h10.517a.721.721,0,0,1,.72.72Z" transform="translate(0 -80.252)" fill="#fff"/>
      <path id="Path_19" data-name="Path 19" d="M392.441,283a5.81,5.81,0,0,0-5.81,5.81.255.255,0,0,1-.511,0,5.81,5.81,0,1,0-9.285,4.657h19.08A5.81,5.81,0,0,0,392.441,283Zm-12.131,6.768a.958.958,0,1,1,.958-.958A.958.958,0,0,1,380.31,289.768Zm12.131,0a.958.958,0,1,1,.958-.958A.958.958,0,0,1,392.441,289.768Z" transform="translate(-18.318)" fill="#fff"/>
      <path id="Path_20" data-name="Path 20" d="M555.573,393.537l-5.144-1.2.182-5.947L555.573,385Z" transform="translate(-171.782 -88.975)" fill="#fff"/>
      <path id="Path_21" data-name="Path 21" d="M600.429,382.772v8.866a.874.874,0,0,0,1.35-.274v-8.1S601.578,382.279,600.429,382.772Z" transform="translate(-215.397 -86.911)" fill="#fff"/>
      <path id="Path_22" data-name="Path 22" d="M408.288,483.143l-.164.365,5.418,8.337s.237,1-.693.675l-6.494-7.224s-.93-.182-.949.511l-.529,6.275a.575.575,0,0,1-1.058.182l-.584-6.695-.894-.274-6.476,7.188s-.967.4-.766-.693l5.4-8.191-.018-.456Z" transform="translate(-36.263 -174.586)" fill="#fff"/>
    </g>
    <text id="Cinema" transform="translate(1541 84)" fill="#fff" font-size="28" font-family="Roboto-Regular, Roboto"><tspan x="0" y="0">Cinema</tspan></text>
  </g>
</svg>
