<svg xmlns="http://www.w3.org/2000/svg" width="46.323" height="34.75" viewBox="0 0 46.323 34.75">
  <g id="Group_167" data-name="Group 167" transform="translate(0 0)">
    <g id="Group_161" data-name="Group 161">
      <g id="Group_162" data-name="Group 162">
        <g id="Group_163" data-name="Group 163">
          <g id="Group_166" data-name="Group 166">
            <path id="Path_34" data-name="Path 34" d="M9.406-447.905a3.729,3.729,0,0,0-1.647.9c-.624.579-.778.977-.552,1.457.054.127,2.081,1.909,4.5,3.963,5.818,4.94,12.82,10.938,15.1,12.938,1.592,1.393,1.909,1.629,2.334,1.755a1.281,1.281,0,0,0,.968,0c.525-.154.507-.136,3.049-2.361,2.135-1.873,8.423-7.256,14.395-12.332,2.416-2.054,4.442-3.836,4.5-3.963.226-.479.072-.878-.552-1.457a3.781,3.781,0,0,0-1.764-.923C49.007-448.086,10.031-448.059,9.406-447.905Z" transform="translate(-6.466 448.035)" fill="#fff"/>
          </g>
        </g>
      </g>
    </g>
    <path id="Path_35" data-name="Path 35" d="M.424-384.923c-.443.262-.425-.28-.425,12.956,0,7.917.036,12.513.09,12.82a3.905,3.905,0,0,0,3.067,3.076c.67.127,39.338.127,40.008,0a3.905,3.905,0,0,0,3.067-3.076c.054-.308.09-4.9.09-12.82,0-13.3.018-12.712-.443-12.965a1.381,1.381,0,0,0-1.059.036c-.3.208-12.377,10.5-15.227,12.983-1.411,1.221-2.94,2.542-3.393,2.94a4.257,4.257,0,0,1-3.574,1.33c-1.131-.181-1.448-.389-3.9-2.542C15.9-372.664,2.451-384.154,1.591-384.824A1.25,1.25,0,0,0,.424-384.923Z" transform="translate(0.001 390.726)" fill="#fff"/>
  </g>
</svg>
