<svg xmlns="http://www.w3.org/2000/svg" width="62.538" height="35" viewBox="0 0 62.538 35">
  <g id="Group_106" data-name="Group 106" transform="translate(-181.11 -323)">
    <path id="Path_23" data-name="Path 23" d="M240.819,328.339,232.5,332.51v-6.593c0-1.611-1.644-2.917-3.671-2.917H184.781c-2.027,0-3.671,1.306-3.671,2.917v29.167c0,1.611,1.643,2.917,3.671,2.917h44.045c2.026,0,3.671-1.306,3.671-2.917v-6.691l8.323,4.171a1.954,1.954,0,0,0,2.829-1.747V330.086A1.954,1.954,0,0,0,240.819,328.339Zm.869,22.465-11.152-5.587v9.867c0,.38-.682.956-1.71.956H184.781c-1.028,0-1.71-.576-1.71-.956V325.917c0-.38.681-.956,1.71-.956h44.045c1.027,0,1.71.576,1.71.956v9.769l11.152-5.588Z" fill="#fff"/>
    <g id="Song_:_Lorem_Ipsum_-_Lorem_Ipsum." data-name="Song : Lorem Ipsum - Lorem Ipsum." transform="translate(190.909 329.745)">
      <g id="Group_103" data-name="Group 103" transform="translate(0 0)">
        <g id="Group_102" data-name="Group 102" style="isolation: isolate">
          <path id="Path_24" data-name="Path 24" d="M235.8,375.627h5.074v1.92h-7.463v-11.6h2.39Z" transform="translate(-233.415 -365.949)" fill="#fff"/>
          <path id="Path_25" data-name="Path 25" d="M354.183,377.547h-2.39v-11.6h2.39Z" transform="translate(-342.808 -365.949)" fill="#fff"/>
          <path id="Path_26" data-name="Path 26" d="M404.808,374.671l2.629-8.722h2.66l-4.038,11.6h-2.493l-4.022-11.6H402.2Z" transform="translate(-386.934 -365.949)" fill="#fff"/>
          <path id="Path_27" data-name="Path 27" d="M559.952,372.52h-4.588v3.107h5.385v1.92h-7.774v-11.6h7.758v1.936h-5.369v2.764h4.588Z" transform="translate(-528.72 -365.949)" fill="#fff"/>
        </g>
      </g>
    </g>
    <g id="Song_:_Lorem_Ipsum_-_Lorem_Ipsum.-2" data-name="Song : Lorem Ipsum - Lorem Ipsum." transform="translate(190.107 347.298)">
      <g id="Group_105" data-name="Group 105" transform="translate(0 -2.157)">
        <g id="Group_104" data-name="Group 104" style="isolation: isolate">
          <path id="Path_28" data-name="Path 28" d="M276.211,575.31a.629.629,0,0,0-.245-.533,3.212,3.212,0,0,0-.883-.392,6.285,6.285,0,0,1-1.009-.406,1.649,1.649,0,0,1-1.013-1.475,1.437,1.437,0,0,1,.272-.86,1.772,1.772,0,0,1,.781-.591,2.939,2.939,0,0,1,1.142-.212,2.674,2.674,0,0,1,1.136.231,1.809,1.809,0,0,1,.774.652,1.7,1.7,0,0,1,.276.956h-1.226a.8.8,0,0,0-.257-.636,1.059,1.059,0,0,0-.723-.227,1.13,1.13,0,0,0-.7.19.6.6,0,0,0-.249.5.574.574,0,0,0,.292.486,3.3,3.3,0,0,0,.86.368,3.716,3.716,0,0,1,1.524.781,1.555,1.555,0,0,1,.478,1.161,1.432,1.432,0,0,1-.584,1.212,2.559,2.559,0,0,1-1.573.439,3.041,3.041,0,0,1-1.251-.251,1.98,1.98,0,0,1-.86-.689,1.763,1.763,0,0,1-.3-1.014h1.23q0,.985,1.177.985a1.145,1.145,0,0,0,.682-.178A.579.579,0,0,0,276.211,575.31Z" transform="translate(-272.876 -570.839)" fill="#fff"/>
          <path id="Path_29" data-name="Path 29" d="M328.992,572.666h-1.823v4.957h-1.226v-4.957h-1.8v-.993h4.846Z" transform="translate(-319.119 -571.591)" fill="#fff"/>
          <path id="Path_30" data-name="Path 30" d="M382.91,575.445h-.977v2.178h-1.226v-5.95h2.211a2.5,2.5,0,0,1,1.626.47,1.622,1.622,0,0,1,.572,1.328,1.832,1.832,0,0,1-.263,1.015,1.8,1.8,0,0,1-.8.648l1.287,2.432v.057h-1.316Zm-.977-.993h.989a1.012,1.012,0,0,0,.715-.235.84.84,0,0,0,.253-.648.9.9,0,0,0-.239-.662.994.994,0,0,0-.734-.241h-.985Z" transform="translate(-370.135 -571.591)" fill="#fff"/>
          <path id="Path_31" data-name="Path 31" d="M438.766,575.044h-2.354v1.594h2.763v.985h-3.988v-5.95h3.98v.993h-2.754v1.418h2.354Z" transform="translate(-419.273 -571.591)" fill="#fff"/>
          <path id="Path_32" data-name="Path 32" d="M481.939,576.4h-2.149l-.409,1.226h-1.3l2.215-5.95h1.136l2.227,5.95h-1.3Zm-1.819-.993h1.488l-.748-2.227Z" transform="translate(-457.959 -571.591)" fill="#fff"/>
          <path id="Path_33" data-name="Path 33" d="M542.243,571.673l1.528,4.315,1.52-4.315h1.61v5.95h-1.23V576l.123-2.807-1.606,4.434h-.842l-1.6-4.43.123,2.8v1.627h-1.226v-5.95Z" transform="translate(-514.39 -571.591)" fill="#fff"/>
        </g>
      </g>
    </g>
  </g>
</svg>
